<?xml version="1.0" encoding="utf-8"?>
<!-- Generator: Adobe Illustrator 17.1.0, SVG Export Plug-In . SVG Version: 6.00 Build 0)  -->
<!DOCTYPE svg PUBLIC "-//W3C//DTD SVG 1.1//EN" "http://www.w3.org/Graphics/SVG/1.1/DTD/svg11.dtd">
<svg version="1.1" id="Layer_1" xmlns="http://www.w3.org/2000/svg" xmlns:xlink="http://www.w3.org/1999/xlink" x="0px" y="0px"
	 viewBox="0 0 800 600" enable-background="new 0 0 800 600" xml:space="preserve">
<g>
	<path fill="#FFFFFF" stroke="#FFFFFF" stroke-miterlimit="10" d="M408.8,473.2l-0.1-0.3c-1.7-8.1-2.5-12.2-2.9-14.2
		c-0.2-1-0.3-1.6-0.4-1.8h-0.1v-0.3c0-0.1,0.2-2.7,2.3-6.7c1.9-3.7,5.8-9.4,13.5-15.4c6.8-5.4,38.4-20.6,76.8-37
		c32.5-13.9,74.2-30.3,93.9-34.9h0.1h0.1c1.9,0.3,8.2,1.8,9.3,5.7c0,0.1,3.5,12.6,4.5,18c1.1,5.7,0.7,8.2-9,11.3
		c-4.5,1.5-12.9,4.5-21.1,7.4c-9.7,3.5-18.9,6.8-22.2,7.7c-1.2,0.3-2.3,0.5-3.3,0.5c-2.5,0-4.5-0.9-6.5-1.9c-1.2-0.6-2.5-1.2-4-1.6
		c-1.8-0.5-3.7-0.8-5.9-0.8c-5.7,0-12.3,1.8-19.6,5.3c-0.7,0.3-67.9,29.6-77.6,36.3c-8.6,5.9-11.2,11.8-12.4,18.8v0.2L408.8,473.2z
		 M405.9,456.6c0.1,0.2,0.2,0.8,0.4,2c0.4,2,1.2,6,2.8,13.9l14.6-3.6c1.3-7,3.9-13,12.6-18.9c9.7-6.7,77-36.1,77.7-36.3
		c7.3-3.5,13.9-5.3,19.8-5.3c2.2,0,4.2,0.3,6,0.8c1.5,0.4,2.8,1.1,4.1,1.7c2,1,3.9,1.8,6.3,1.8c1,0,2.1-0.2,3.2-0.5
		c3.3-0.9,12.9-4.4,22.2-7.7c8.1-2.9,16.5-6,21.1-7.4c9.8-3.1,9.7-5.6,8.7-10.7c-1.1-5.3-4.5-17.8-4.5-17.9c-1-3.6-7.1-5-8.9-5.3
		l0,0c-19.7,4.6-61.4,21.1-93.8,34.9c-38.4,16.4-69.9,31.6-76.7,36.9c-7.6,5.9-11.4,11.5-13.3,15.2
		C406.3,453.7,405.9,456.2,405.9,456.6z"/>
</g>
<g>
	<path fill="#FFFFFF" stroke="#FFFFFF" stroke-miterlimit="10" d="M426.1,479.1l-2.1-9c0-0.1-1.3-8.7-2.7-17
		c-1.4-8.5,11.8-15.3,12.3-15.6C469.5,416.1,548.3,386,592,370c1.5-0.6,2.5-0.9,2.9-1.1c2.5-0.9,4.4-1,5.6-0.3
		c1,0.6,1.2,1.4,1.2,1.5l-0.5,0.1l0.2-0.1l-0.2,0.1c0,0-0.2-0.7-1-1.2c-0.8-0.4-2.3-0.7-5.2,0.4c-0.4,0.2-1.4,0.5-2.9,1.1
		c-43.7,16-122.4,46-158.2,67.4c-0.1,0.1-13.5,6.9-12.1,15.1c1.4,8.3,2.7,16.9,2.7,17l2.1,9L426.1,479.1z"/>
</g>
<g>
	<path fill="#FFFFFF" stroke="#FFFFFF" stroke-miterlimit="10" d="M406.7,470.4l-1.5-13.8h0.2l16.4-3.7l1.8,13.7L406.7,470.4z
		 M405.8,457l1.4,12.8l15.9-3.7l-1.7-12.7L405.8,457z"/>
</g>
<path fill="none" stroke="#FFFFFF" stroke-miterlimit="10" d="M410.1,483.4l-3.5-13.6l0.2-0.1l16.7-3.8l3.1,13.2L410.1,483.4z
	 M407.2,470.2l3.2,12.6l15.6-4l-2.9-12.3L407.2,470.2z"/>
<g id="XMLID_2_">
	<g>
		<g>
			<path fill="#FFFFFF" stroke="#FFFFFF" stroke-miterlimit="10" d="M525.8,524.5c-10.3,0-20.6-1.9-30.7-5.7
				c-0.3-0.1-32.1-11.8-47.5-35.1c-6.3-9.7-9.3-18-9.3-26.1c0-9.6,4.3-19,13-28.6c0.1-0.1,12.8-13.4,29.7-19.8h0.1h0.1
				c6.4,0.4,8.9,0.9,8.9,0.9h0.1l0.2,0.1v0.2c0,0.3-0.5,0.6-3.7,2c-10.4,4.6-37.9,17-43.2,38.6c-2.7,11,0.9,22.9,10.7,35.4
				c13.9,14.4,24.7,23,45.1,29.8c8.6,2.9,17.7,4.4,27.1,4.4l0,0c20.1,0,41.4-6.7,63.4-20c31.9-19.2,74.9-55.3,94.1-73.9
				c0-0.2,0.2-0.4,1.3-1c0.7-0.4,1.4-0.3,1.7,0.3c0.3,0.6,0.2,1.4,0,1.8c-0.2,0.3-67.4,60.9-94.7,75.5
				C572,513.9,550.4,524.5,525.8,524.5z M481.2,409.5c-16.8,6.4-29.4,19.6-29.5,19.7c-8.6,9.5-12.8,18.7-12.8,28.2
				c0,8.1,2.9,16.3,9.2,25.8c15.2,23.2,46.9,34.8,47.2,34.9c10,3.8,20.2,5.7,30.5,5.7c24.4,0,46-10.5,66-21.3
				c26.9-14.5,94.1-74.9,94.5-75.4c0.1-0.1,0.2-0.8,0-1.2c-0.1-0.3-0.3-0.3-0.4-0.3c-0.2,0-0.3,0.1-0.6,0.2
				c-0.3,0.2-0.5,0.3-0.7,0.4l-0.4,0.3c-19.1,18.5-62.3,54.8-94.3,74.1c-22.1,13.3-43.5,20.1-63.7,20.1l0,0
				c-9.4,0-18.6-1.5-27.2-4.4c-20.5-6.8-31.3-15.4-45.3-29.9c-9.9-12.6-13.6-24.7-10.8-35.9c5.4-21.9,33.1-34.3,43.5-38.9
				c1.3-0.6,2.5-1.1,3.1-1.4C488.5,410.2,486,409.9,481.2,409.5z"/>
		</g>
	</g>
</g>
<g>
	<path fill="#FFFFFF" stroke="#FFFFFF" stroke-miterlimit="10" d="M448.8,503.3l-0.5-0.1c2.2-10.7-3.4-24.6-7-31.9l0.4-0.2
		C445.3,478.4,451,492.5,448.8,503.3z"/>
</g>
<g>
	<path fill="#FFFFFF" stroke="#FFFFFF" stroke-miterlimit="10" d="M455.6,510.2l-0.5-0.1c0.4-2.8,1.9-4.9,4.2-5.9
		c3.9-1.7,9.8-0.2,15.7,3.9l-0.3,0.4c-5.8-4-11.5-5.4-15.2-3.8C457.4,505.6,456,507.5,455.6,510.2z"/>
</g>
<path fill="#FFFFFF" stroke="#FFFFFF" stroke-miterlimit="10" d="M448.6,503.1c-0.6-2.4-0.5-4.5,0.3-4.7s2,1.6,2.6,4
	s0.5,4.5-0.3,4.7C450.4,507.3,449.3,505.5,448.6,503.1z M451.1,507.3c-1.1,0-2.2-2.1-2.7-4.2c-0.3-1.2-0.5-2.4-0.4-3.3
	c0.1-1,0.4-1.7,0.9-1.8c0.1,0,0.1,0,0.2,0c1.1,0,2.2,2.1,2.7,4.2c0.6,2.2,0.6,4.8-0.5,5.1C451.2,507.3,451.1,507.3,451.1,507.3z
	 M449,498.5L449,498.5c-0.3,0.1-0.5,0.4-0.6,1.3s0.1,2,0.4,3.1c0.6,2.4,1.7,4,2.3,3.8c0.5-0.1,0.8-1.9,0.1-4.5
	C450.6,500.1,449.6,498.5,449,498.5z M455.9,506.1c1.2,0,2.2,1.3,2.2,2.9s-1,2.9-2.2,2.9s-2.2-1.3-2.2-2.9S454.7,506.1,455.9,506.1z
	 M455.9,512.1c-1.3,0-2.4-1.4-2.4-3.2s1.1-3.2,2.4-3.2s2.4,1.4,2.4,3.2S457.2,512.1,455.9,512.1z M455.9,506.3
	c-1.1,0-1.9,1.2-1.9,2.7s0.9,2.7,1.9,2.7s1.9-1.2,1.9-2.7S456.9,506.3,455.9,506.3z"/>
<g id="Layer_6">
	<g>
		<g>
			<path fill="#FFFFFF" stroke="#FFFFFF" stroke-miterlimit="10" d="M182.9,67"/>
		</g>
		<g>
			<path fill="#FFFFFF" stroke="#FFFFFF" stroke-miterlimit="10" d="M309.1,270.8l-17.8-0.3v-0.2c0-0.1-0.1-11.1-0.2-14
				c0-0.2,0-0.3,0-0.5c-0.1-2-0.1-4-4.5-4c-8,0-78.6,0-81,0.2c-4.5,0.4-5,1.8-5,4.7c0,3-0.2,13.6-0.2,13.7v0.2h-17.8l-2.5-103.5
				l0.6-97.6h0.2c0.1,0,12,0,18.4,0.1h0.3v0.3c-0.1,0.7,0,14.9,0.1,17.1c0.3,4,1.9,5.8,5.2,6c3.4,0.2,73.7,0.2,81.7,0.2
				c3.1,0,3.3-3.7,3.4-4.9c0-0.2,0-0.3,0-0.4c0.2-4.1,0.3-17.8,0.3-17.9v-0.2l19.1-0.1v0.2l1.8,98.9L309.1,270.8z M291.8,270
				l16.8,0.3l2.3-101.4l-1.8-98.7L291,70.4c0,1.9-0.1,13.9-0.3,17.7v0.1c0,0,0,0.1,0,0.3c-0.2,3.6-1.5,5.4-3.9,5.4
				c-8,0-78.4,0-81.7-0.2c-3.5-0.2-5.3-2.3-5.6-6.5c-0.1-1.8-0.2-14.8-0.1-17c-5.9-0.1-16.1-0.1-17.9-0.1l-0.6,97l2.5,103H200
				c0-1.6,0.2-10.7,0.2-13.5c0-3.3,0.8-4.8,5.4-5.2c2.3-0.2,67.9-0.2,81-0.2c4.8,0,4.9,2.5,5,4.5c0,0.2,0,0.3,0,0.5
				C291.7,259,291.8,268.4,291.8,270z"/>
		</g>
		<g>
			<path fill="#FFFFFF" stroke="#FFFFFF" stroke-miterlimit="10" d="M182.9,270.6c-2,0-2.3-2.3-2.4-4.2c-0.1-2.1-1.9-98.7-1.9-99.7
				c0-3.7-0.3-90.8-0.2-92.1c0.1-0.8,0.5-4.7,2.7-5l0.1,0.5c-1.9,0.2-2.2,4.1-2.3,4.5c-0.1,1.3,0.2,91.2,0.2,92.1
				c0,1,1.8,97.5,1.9,99.7c0.1,2.6,0.7,3.8,1.9,3.8V270.6z"/>
		</g>
		<g>
			<path fill="#FFFFFF" stroke="#FFFFFF" stroke-miterlimit="10" d="M289.3,217.8h-87.5V115.9h87.5V217.8z M202.3,217.3h86.5V116.4
				h-86.5L202.3,217.3L202.3,217.3z"/>
		</g>
		<g>
			<path fill="#FFFFFF" stroke="#FFFFFF" stroke-miterlimit="10" d="M309,270.6l-0.3-0.4c0.2-0.1,0.3-0.2,0.5-0.3
				c0.8-0.5,1.3-0.8,1.5-2.8c0.2-2.3,2-97.4,2.1-98.4c0-0.9-1-92.1-1-94.4c0-2.1-1.3-3.9-2.5-4.2l0.1-0.5c1.4,0.3,2.9,2.2,2.9,4.7
				c0,2.2,1,93.5,1,94.4c-0.1,3.9-1.8,96-2.1,98.4c-0.2,2.2-0.9,2.6-1.7,3.1C309.3,270.4,309.2,270.5,309,270.6z"/>
		</g>
		<g>
			<path fill="#FFFFFF" stroke="#FFFFFF" stroke-miterlimit="10" d="M264.7,91.6c-16.8,0-39.4,0-51,0c-4,0-6.8,0-7.5,0
				c-1.3,0-2.3-0.3-2.9-1c-1.1-1.2-0.8-3.3-0.5-5.2v-0.3c0-0.2,3.3-20.6,3.9-23.4c0.7-3,2.2-3.3,5.4-3.3c0.7,0,3.2,0,6.9,0
				c9.8,0,28,0,41.8,0c10.9,0,16.9,0,17.9,0c3.6-0.1,4.4,1.1,5,3.7c0.4,1.7,1.8,10.4,2.8,16.7c0.5,3.1,0.9,5.5,1,6.3l0.1,0.4
				c0.4,1.9,0.9,4.2,0,5.4c-0.4,0.5-1,0.8-1.8,0.8C284.9,91.6,277.8,91.6,264.7,91.6z M212.2,58.8c-3.3,0-4.4,0.4-4.9,2.9
				c-0.6,2.8-3.9,23.1-3.9,23.3v0.3c-0.3,1.9-0.6,3.8,0.3,4.8c0.5,0.6,1.3,0.9,2.5,0.9c0.7,0,3.4,0,7.5,0c11.6,0,34.2,0,51,0
				c13.1,0,20.2,0,21.2,0c0.7,0,1.1-0.2,1.4-0.6c0.8-1,0.3-3.2-0.1-5l-0.1-0.4c-0.1-0.8-0.5-3.2-1-6.3c-1-6.3-2.3-15-2.8-16.7
				c-0.5-2.4-1.3-3.4-4.5-3.3c-1,0-7.1,0-17.9,0c-13.8,0-32,0-41.8,0C215.4,58.8,212.9,58.8,212.2,58.8z"/>
		</g>
		<g>
			<path fill="#FFFFFF" stroke="#FFFFFF" stroke-miterlimit="10" d="M212.3,294.1c-3.3,0-3.8-1.3-4.5-3.6c-0.2-0.6-0.8-5.9-1.8-14.6
				c-0.8-7-1.6-14.2-2-15.8c0-0.3-0.1-0.6-0.2-0.9c-0.3-1.8-0.7-3.8,0.1-4.9c0.4-0.5,1-0.7,1.8-0.8c1,0,8.1,0,21.2,0
				c16.8,0,39.4,0,51,0c4,0,6.8,0,7.5,0c1.3,0,2.3,0.3,2.9,1c1.1,1.2,0.8,3.3,0.5,5.2v0.3c-0.1,1.1-3.3,27.9-3.9,30.7
				c-0.7,3-2.2,3.3-5.4,3.3c-0.7,0-3.2,0-6.9,0c-9.8,0-28,0-41.8,0c-10.9,0-16.9,0-17.9,0C212.6,294.1,212.5,294.1,212.3,294.1z
				 M226.9,253.9c-13.1,0-20.2,0-21.2,0c-0.6,0-1.1,0.2-1.4,0.6c-0.7,0.9-0.4,2.8,0,4.5c0.1,0.3,0.1,0.6,0.2,0.9
				c0.3,1.6,1.2,8.8,2,15.8c0.8,6.9,1.6,14,1.8,14.5c0.7,2.4,1.2,3.4,4.5,3.3c1,0,7.1,0,17.9,0c13.8,0,32,0,41.8,0
				c3.7,0,6.2,0,6.9,0c3.3,0,4.4-0.4,4.9-2.9c0.6-2.8,3.9-30.4,3.9-30.7v-0.3c0.3-1.9,0.6-3.8-0.3-4.8c-0.5-0.6-1.3-0.9-2.5-0.9
				c-0.7,0-3.4,0-7.5,0C266.3,254,243.8,253.9,226.9,253.9z"/>
		</g>
		<g>
			<path fill="#FFFFFF" stroke="#FFFFFF" stroke-miterlimit="10" d="M314.7,145.5c-0.1,0-0.2,0-0.3,0c-0.1,0-0.2,0-0.3,0h-1.3V145
				h1.3c0.1,0,0.2,0,0.3,0c0.4,0,0.7,0,1-0.2c0.2-0.2,0.3-0.6,0.3-1.2v-41.4c0-1.2,0-1.6-1.9-1.7c-1.1-0.1-1.4-0.1-1.5,0l0,0
				c-0.1,0-0.4-0.1-0.3-0.3c0-0.3,0.1-0.3,1.9-0.2c2.3,0.1,2.4,0.8,2.4,2.2v0.3v41.1c0,0.7-0.2,1.3-0.5,1.6
				C315.4,145.4,315,145.5,314.7,145.5z"/>
		</g>
		<g>
			<path fill="#FFFFFF" stroke="#FFFFFF" stroke-miterlimit="10" d="M313.3,185.2c-0.5,0-0.8,0-0.8-0.1l0.1-0.5c0,0,0.6,0.1,1.7,0
				c0.8-0.1,1.3-0.6,1.3-2.7c0-0.4,0-1.6,0-3.2c0-6.2-0.1-19.1,0-20.3c0.1-0.5,0-0.8-0.2-1.1c-0.4-0.4-1-0.5-1.4-0.5h-1.1v-0.5h1.1
				c0.4,0,1.3,0.1,1.7,0.6c0.3,0.4,0.4,0.9,0.3,1.5c-0.2,1.2-0.1,14.1,0,20.2c0,1.6,0,2.8,0,3.2c0,1.5-0.2,3-1.7,3.2
				C313.9,185.2,313.6,185.2,313.3,185.2z"/>
		</g>
		<g>
			<path fill="#FFFFFF" stroke="#FFFFFF" stroke-miterlimit="10" d="M312.8,241c-0.8,0-1.4-0.1-1.4-0.1l0.1-0.5c0,0,1.3,0.2,2.6,0
				c1.2-0.2,1.4-1,1.4-2.6v-40.2c0-2-0.9-2.2-1.9-2.2h-1.2v-0.5h1.2c1,0,2.4,0.3,2.4,2.7v40.2c0,1.3-0.1,2.8-1.8,3.1
				C313.7,241,313.2,241,312.8,241z"/>
		</g>
		<g>
			<path fill="#FFFFFF" stroke="#FFFFFF" stroke-miterlimit="10" d="M177.3,166.6c-0.6,0-1-0.2-1.4-0.5c-0.8-0.7-0.8-2.2-0.8-3.9
				v-38.1c0-2.1,0.6-2.4,2.5-2.4h1v0.5h-1c-1.8,0-2,0.2-2,1.9v38.1c0,1.5,0,2.9,0.6,3.5c0.3,0.3,0.6,0.4,1.2,0.3l1.4-0.1v0.5
				l-1.4,0.1C177.4,166.6,177.3,166.6,177.3,166.6z"/>
		</g>
	</g>
</g>
<g id="Layer_8">
	<g>
		<g>
			<path fill="none" stroke="#FFFFFF" stroke-miterlimit="10" d="M450.8,253.6c0,10.2,8.2,18.4,18.4,18.4h114.6
				c10.2,0,18.4-8.2,18.4-18.4V88c0-10.2-8.2-18.4-18.4-18.4H469.2c-10.2,0-18.4,8.2-18.4,18.4L450.8,253.6L450.8,253.6z"/>
			<path fill="none" stroke="#FFFFFF" stroke-miterlimit="10" d="M583.8,272.2H469.2c-10.3,0-18.6-8.4-18.6-18.6V88
				c0-10.3,8.4-18.6,18.6-18.6h114.6c10.3,0,18.6,8.4,18.6,18.6v165.6C602.4,263.9,594.1,272.2,583.8,272.2z M469.2,69.9
				c-10,0-18.1,8.1-18.1,18.1v165.6c0,10,8.1,18.1,18.1,18.1h114.6c10,0,18.1-8.1,18.1-18.1V88c0-10-8.1-18.1-18.1-18.1H469.2z"/>
		</g>
		<g>
			<path fill="none" stroke="#FFFFFF" stroke-miterlimit="10" d="M463,169.9c0,3,2.5,5.5,5.5,5.5h117c3,0,5.5-2.5,5.5-5.5v-83
				c0-3-2.5-5.5-5.5-5.5h-117c-3,0-5.5,2.5-5.5,5.5V169.9z"/>
			<path fill="none" stroke="#FFFFFF" stroke-miterlimit="10" d="M585.5,175.7h-117c-3.2,0-5.8-2.6-5.8-5.8v-83
				c0-3.2,2.6-5.8,5.8-5.8h117c3.2,0,5.8,2.6,5.8,5.8v83C591.3,173.1,588.7,175.7,585.5,175.7z M468.5,81.7c-2.9,0-5.3,2.4-5.3,5.3
				v83c0,2.9,2.4,5.3,5.3,5.3h117c2.9,0,5.3-2.4,5.3-5.3V87c0-2.9-2.4-5.3-5.3-5.3H468.5z"/>
		</g>
		<path fill="none" stroke="#FFFFFF" stroke-miterlimit="10" d="M527.7,201.9c10.2,0,18.4,8.2,18.4,18.4s-8.2,18.4-18.4,18.4
			s-18.4-8.2-18.4-18.4S517.5,201.9,527.7,201.9z M527.7,239c-10.3,0-18.6-8.4-18.6-18.6s8.4-18.6,18.6-18.6
			c10.3,0,18.6,8.4,18.6,18.6S537.9,239,527.7,239z M527.7,202.2c-10,0-18.1,8.1-18.1,18.1s8.1,18.1,18.1,18.1s18.1-8.1,18.1-18.1
			S537.7,202.2,527.7,202.2z M527.7,181.9c21.2,0,38.4,17.2,38.4,38.4s-17.2,38.4-38.4,38.4s-38.4-17.2-38.4-38.4
			S506.5,181.9,527.7,181.9z M527.7,259c-21.3,0-38.6-17.3-38.6-38.6s17.3-38.6,38.6-38.6c21.3,0,38.6,17.3,38.6,38.6
			S549,259,527.7,259z M527.7,182.2c-21,0-38.1,17.1-38.1,38.1s17.1,38.1,38.1,38.1s38.1-17.1,38.1-38.1S548.7,182.2,527.7,182.2z"
			/>
	</g>
</g>
<path id="Layer_9_copy" fill="none" stroke="#FFFFFF" stroke-miterlimit="10" d="M310.1,378.7c10.4,18.7,16.1,41.7,16.1,64.9
	s-5.7,46.2-16.1,64.9c-10.7,19.4-25.7,32.8-42.4,37.8c-5.3,1.6-10.6,2.4-16,2.4c-2.3,0-4.4-0.1-6.6-0.4c0.6-0.1,1.2-0.1,1.8-0.2
	c-0.1,0-0.1,0-0.2,0c0.3,0,0.8,0,1.1,0c1.3,0.1,2.6,0.1,3.9,0.1c5.3,0,10.6-0.8,15.8-2.4c16.5-5.1,31.5-18.4,42.1-37.5
	c10.3-18.6,16-41.6,16-64.6s-5.7-45.9-16-64.6c-10.6-19.1-25.5-32.5-42.1-37.6c-4.5-1.4-9.2-2.2-13.8-2.4c-1.9-0.2-3.8-0.2-5.6,0.1
	c-0.2,0-0.4,0-0.8,0c-0.8-0.1-1.5-0.2-2.2-0.3c2.2-0.2,4.3-0.4,6.6-0.4c5.3,0,10.7,0.9,16,2.4C284.3,345.9,299.4,359.4,310.1,378.7z
	 M247.4,339.1c-0.1,0-0.3,0-0.4,0C247.1,339.2,247.2,339.2,247.4,339.1L247.4,339.1z M247.4,339.1c-0.1,0-0.2,0-0.4,0.1
	c-0.1,0-0.2,0-0.2,0c-0.5,0-1,0.1-1.5,0.2c-0.8-0.1-1.5-0.2-2.3-0.2c0.8-0.1,1.5-0.2,2.3-0.3C245.8,338.9,246.6,339,247.4,339.1z
	 M246.7,339.2c0.1,0,0.2,0,0.2,0c-0.4,0.1-0.9,0.1-1.2,0.2c-0.2,0-0.3,0-0.5,0C245.7,339.4,246.2,339.4,246.7,339.2z M246.7,548
	c0.1,0,0.2,0,0.2,0c-0.6,0.1-1.2,0.2-1.8,0.2c-0.8-0.1-1.5-0.2-2.3-0.3c0.8-0.1,1.5-0.1,2.3-0.2c0.1,0,0.3,0,0.4,0.1l0.3,0.1
	C246.3,547.9,246.5,548,246.7,548z M245.6,547.8c-0.1,0-0.3,0-0.4-0.1h0.1L245.6,547.8z M245.2,338.9c-0.8,0.1-1.5,0.2-2.3,0.3
	c-1.4-0.1-2.8-0.2-4.2-0.2c-19.1,0-37.2,10.2-50.8,28.6c-14.4,19.5-22.3,46.4-22.3,75.9s7.9,56.4,22.3,75.9
	c13.6,18.5,31.7,28.6,50.8,28.6c1.4,0,2.7-0.1,4.1-0.2c0.8,0.1,1.5,0.2,2.3,0.3c-2.2,0.2-4.2,0.4-6.4,0.4
	c-19.4,0-37.5-10.3-51.4-28.9c-14.3-19.3-22.3-46.4-22.3-76s7.9-56.8,22.4-76.2c13.7-18.6,32-28.9,51.2-28.9
	C240.9,338.5,243,338.6,245.2,338.9z M242.9,339.2c0.8,0,1.5,0.1,2.3,0.2c-16.6,2.1-32.2,11.9-44.3,28.2
	c-14.4,19.5-22.3,46.4-22.3,75.9s7.9,56.4,22.3,75.9c12.1,16.3,27.7,26.2,44.3,28.2c-0.8,0.1-1.5,0.2-2.3,0.2
	c-16-2.6-30.8-12.4-42.5-28.2C186,500.1,178,473,178,443.4s7.9-56.8,22.4-76.2C212.1,351.6,226.9,341.8,242.9,339.2z M279.9,373.7
	c-0.3,0-0.6-0.1-0.9-0.2c-1.2-0.5-2.2-2.2-2.4-4.1c-0.2-1.5,0.2-2.9,0.9-3.7c0.7-0.8,1.6-1,2.6-0.5c1.2,0.6,2.2,2.3,2.4,4.1
	c0.1,1.5-0.3,2.9-1,3.8C281,373.5,280.4,373.7,279.9,373.7z M279,365.4c-0.5,0-0.9,0.2-1.2,0.6c-0.6,0.7-0.9,2-0.8,3.3
	c0.2,1.7,1.1,3.2,2.1,3.7c0.7,0.3,1.4,0.2,1.9-0.4c0.7-0.7,1-2,0.9-3.4c-0.2-1.6-1.1-3.2-2.1-3.7C279.5,365.5,279.3,365.4,279,365.4
	z M301.2,396.1c-0.2,0-0.4,0-0.6-0.1c-1.1-0.5-2-2.1-2.1-3.8c-0.1-1.5,0.2-2.9,0.9-3.7c0.6-0.6,1.4-0.8,2.1-0.4
	c1.1,0.4,1.9,2.1,2.1,3.7c0.1,1.5-0.2,2.9-1,3.7C302.2,395.9,301.7,396.1,301.2,396.1z M300.7,388.4c-0.3,0-0.7,0.2-0.9,0.5
	c-0.6,0.7-0.9,1.9-0.8,3.3c0.1,1.7,1,3,1.8,3.4c0.1,0,0.3,0.1,0.4,0.1c0.4,0,0.8-0.2,1.1-0.5c0.6-0.7,1-1.9,0.8-3.3
	c-0.2-1.6-1-3-1.8-3.2C301.1,388.5,300.9,388.4,300.7,388.4z M312.6,428.4c-0.2,0-0.3,0-0.5-0.1c-1.1-0.4-1.9-1.7-2-3.4
	c-0.1-1.5,0.2-2.9,1-3.8c0.5-0.6,1.2-0.8,1.9-0.6c1,0.4,1.8,1.8,1.9,3.4c0.1,1.5-0.2,3-1,3.8C313.6,428.2,313.1,428.4,312.6,428.4z
	 M312.6,421.1c-0.4,0-0.7,0.2-1.1,0.5c-0.7,0.7-1,2-0.9,3.4s0.8,2.6,1.7,2.9c0.4,0.1,0.9,0,1.3-0.4c0.7-0.7,1-2,0.9-3.4
	s-0.8-2.6-1.6-2.9C312.8,421.1,312.7,421.1,312.6,421.1z M313.4,463.3c-0.1,0-0.2,0-0.4,0c-1.1-0.2-1.9-1.5-2-3.1
	c-0.1-1.5,0.3-3.1,1.1-3.9c0.5-0.5,1.1-0.8,1.7-0.6c1.1,0.2,1.9,1.5,2,3.1s-0.3,3.1-1.1,4C314.4,463.1,313.9,463.3,313.4,463.3z
	 M313.4,456c-0.4,0-0.8,0.3-1,0.5c-0.7,0.8-1.1,2.2-1,3.6s0.8,2.5,1.6,2.7c0.4,0.1,0.9-0.1,1.3-0.5c0.7-0.7,1-2.2,0.9-3.6
	s-0.8-2.5-1.6-2.7C313.6,456,313.5,456,313.4,456z M303,496.7h-0.1c-1.1-0.1-2.1-1.4-2.2-3c-0.1-1.7,0.3-3.4,1.2-4.3
	c0.5-0.6,1.1-0.8,1.7-0.8l0,0c1.2,0,2.1,1.2,2.2,3c0.1,1.6-0.3,3.4-1.3,4.3C304.1,496.4,303.6,496.7,303,496.7z M303.6,489
	c-0.4,0-0.9,0.2-1.2,0.6c-0.8,0.9-1.2,2.4-1.1,4c0.1,1.4,0.9,2.5,1.7,2.6h0.1c0.5,0,1-0.3,1.2-0.6c0.8-0.9,1.3-2.5,1.1-4
	c-0.1-1.5-0.8-2.6-1.7-2.6H303.6z M282.6,520.9c-1.2,0-2.3-1.3-2.5-3s0.3-3.5,1.3-4.7c0.6-0.6,1.3-1,1.9-1h0.1
	c1.3,0,2.3,1.3,2.4,3.1c0.2,1.7-0.3,3.5-1.3,4.7C284,520.6,283.3,520.9,282.6,520.9z M283.5,512.7h-0.1c-0.5,0-1.1,0.3-1.6,0.8
	c-0.9,1-1.4,2.7-1.2,4.3c0.2,1.5,1.1,2.6,2,2.6c0.6,0,1.1-0.3,1.6-0.8c0.9-1,1.4-2.7,1.2-4.3C285.3,513.8,284.5,512.7,283.5,512.7z
	 M254.3,529L254.3,529c-1.5,0-2.7-1.4-2.9-3.3c-0.2-1.8,0.4-3.7,1.5-5c0.7-0.8,1.6-1.2,2.4-1.2h0.1c1.3,0,2.4,1.4,2.6,3.3
	c0.2,1.7-0.4,3.6-1.4,4.9C256,528.5,255.1,529,254.3,529L254.3,529z M255.5,520h-0.1c-0.7,0-1.4,0.4-2.1,1.1c-1,1.2-1.6,3-1.4,4.6
	c0.1,1.6,1.1,2.8,2.3,2.8c0.7,0,1.4-0.4,2-1.2c1-1.2,1.5-2.9,1.3-4.5C257.4,521.2,256.5,520,255.5,520z M225.5,513.7
	c-1.7,0-3-1.5-3.4-3.7c-0.2-1.9,0.3-3.8,1.5-5.1c0.8-1,1.9-1.5,3-1.5h0.1c1.7,0.1,3,1.7,3.3,3.7c0.2,1.9-0.4,3.8-1.6,5.1
	C227.6,513.2,226.5,513.7,225.5,513.7z M226.6,503.9c-0.9,0-1.9,0.5-2.6,1.3c-1.1,1.2-1.6,3-1.3,4.7c0.3,1.9,1.5,3.2,2.9,3.2
	c0.9,0,1.8-0.4,2.5-1.2c1.1-1.2,1.7-3,1.5-4.8s-1.4-3.1-2.8-3.2L226.6,503.9z M205.9,475.6c-0.1,0-0.3,0-0.4,0
	c-1.9-0.2-3.5-2-3.7-4.2c-0.2-1.8,0.3-3.7,1.4-4.9c1-1.1,2.3-1.7,3.6-1.5c1.8,0.3,3.2,2,3.6,4.3c0.2,1.8-0.3,3.6-1.4,4.9
	C208.1,475.1,207,475.6,205.9,475.6z M206.4,465.4c-1,0-2,0.5-2.8,1.4c-1,1.2-1.5,2.9-1.3,4.6c0.2,2,1.6,3.6,3.2,3.8
	c1.1,0.1,2.2-0.3,3.1-1.3c1-1.2,1.5-2.8,1.3-4.5c-0.3-2.1-1.5-3.6-3.1-3.9C206.7,465.4,206.5,465.4,206.4,465.4z M202.1,427.7
	c-0.3,0-0.6,0-0.9-0.1c-1.9-0.4-3.4-2.3-3.8-4.6c-0.2-1.8,0.2-3.4,1.3-4.6c1-1.1,2.4-1.6,3.9-1.3c1.9,0.5,3.4,2.4,3.7,4.7
	c0.2,1.8-0.2,3.4-1.3,4.6C204.2,427.2,203.2,427.7,202.1,427.7z M201.8,417.5c-1,0-1.9,0.4-2.6,1.2c-0.9,1.1-1.4,2.6-1.2,4.2
	c0.3,2.1,1.7,3.8,3.4,4.2c1.2,0.3,2.4-0.1,3.3-1.1c0.9-1.1,1.4-2.6,1.2-4.2c-0.2-2.1-1.6-3.8-3.3-4.2
	C202.3,417.5,202,417.5,201.8,417.5z M222.8,388.4c-0.4,0-0.8-0.1-1.1-0.2c-1.7-0.6-3.1-2.5-3.3-4.8c-0.2-1.6,0.2-3.2,1.1-4.2
	c0.9-1.1,2.3-1.4,3.6-0.9c1.7,0.7,3.1,2.6,3.3,4.7c0.2,1.6-0.2,3.2-1.1,4.2C224.6,388,223.7,388.4,222.8,388.4z M221.8,378.6
	c-0.7,0-1.5,0.3-2,1c-0.8,0.9-1.2,2.3-1,3.8c0.2,2,1.4,3.8,3,4.3c1.2,0.4,2.3,0.1,3.1-0.8s1.1-2.3,0.9-3.8c-0.2-1.9-1.4-3.7-3-4.3
	C222.5,378.7,222.2,378.6,221.8,378.6z M250.4,369c-0.4,0-0.8-0.1-1.1-0.3c-1.4-0.6-2.6-2.4-2.8-4.5c-0.2-1.6,0.2-3,1-3.9
	s2-1.1,3.1-0.6c1.4,0.6,2.5,2.5,2.7,4.5c0.2,1.6-0.2,3.1-1,4C251.8,368.7,251.1,369,250.4,369z M249.4,359.9c-0.6,0-1.1,0.3-1.6,0.7
	c-0.7,0.8-1,2.1-0.9,3.6c0.2,1.9,1.3,3.6,2.5,4.1c0.9,0.4,1.8,0.2,2.4-0.5c0.7-0.8,1-2.1,0.9-3.6c-0.2-1.9-1.2-3.6-2.4-4.1
	C250.1,360,249.7,359.9,249.4,359.9z"/>
</svg>
