<?xml version="1.0" encoding="utf-8"?>
<!-- Generator: Adobe Illustrator 17.1.0, SVG Export Plug-In . SVG Version: 6.00 Build 0)  -->
<!DOCTYPE svg PUBLIC "-//W3C//DTD SVG 1.1//EN" "http://www.w3.org/Graphics/SVG/1.1/DTD/svg11.dtd">
<svg version="1.1" xmlns="http://www.w3.org/2000/svg" xmlns:xlink="http://www.w3.org/1999/xlink" x="0px" y="0px"
	 viewBox="0 0 252 144" enable-background="new 0 0 252 144" xml:space="preserve">
<g id="Text">
	<g id="Layer_2_1_" opacity="0.9">
		<rect x="96.4" y="62.9" fill="none" width="59" height="16.8"/>
		<g enable-background="new    ">
    <animate attributeType="CSS" attributeName="opacity" from="1" to="0" dur="5s" repeatCount="indefinite" />
			<path id="letter_x5F_k" fill="#86CD4D" d="M103.6,62.9h0.2c0.3,0,0.4,0.1,0.4,0.4v13.8c0.3-0.5,1.3-2.1,2.8-4.7
				c1.6-2.7,2.4-4.1,2.6-4.4c0.1-0.1,0.2-0.1,0.3-0.1h0.5c0.2,0,0.3,0.1,0.3,0.2c0,0.1-0.5,1.1-1.6,2.9l-1.2,2l2.8,5.2
				c0.1,0.1,0.1,0.2,0.1,0.3c0,0.1-0.1,0.2-0.3,0.2h-0.5c-0.1,0-0.2-0.1-0.3-0.2l-2.4-4.4c-1.5,2.5-2.3,3.9-2.5,4.1
				c-0.2,0.2-0.3,0.4-0.4,0.5c-0.1,0.1-0.3,0.1-0.4,0.1c-0.5,0-0.7-0.3-0.7-0.8V63.3C103.2,63,103.3,62.9,103.6,62.9z"/>
			<path id="letter_x5F_u" fill="#86CD4D" d="M114,67.8h0.2c0.3,0,0.4,0.1,0.4,0.4v6.8c0,0.8,0.2,1.5,0.6,1.9c0.4,0.4,1,0.6,1.8,0.6
				c0.8,0,1.4-0.3,2-0.9c0.1-0.2,0.3-0.2,0.4-0.2c0.3,0,0.4,0.2,0.4,0.5c0,0.1,0,0.2-0.1,0.3c-0.3,0.4-0.7,0.7-1.2,1
				c-0.5,0.3-1.1,0.4-1.6,0.4c-1,0-1.8-0.3-2.4-0.9c-0.6-0.6-0.9-1.5-0.9-2.6v-6.8C113.6,68,113.8,67.8,114,67.8z M120.4,67.9h0.2
				c0.3,0,0.4,0.1,0.4,0.4v7.8c0,0.6,0,1,0.1,1.2c0.1,0.2,0.3,0.3,0.5,0.4l0.2,0.1c0.2,0,0.3,0.1,0.3,0.3v0.2c0,0.2-0.1,0.4-0.4,0.4
				c-0.7,0-1.2-0.2-1.5-0.6c-0.3-0.4-0.4-1.1-0.4-1.9v-7.8C120,68,120.2,67.9,120.4,67.9z"/>
			<path id="letter_x5F_b" fill="#86CD4D" d="M124.3,62.9h0.2c0.1,0,0.2,0,0.3,0.1c0.1,0.1,0.1,0.2,0.1,0.3v5.6
				c0.7-0.7,1.7-1.1,2.8-1.1s2,0.3,2.6,0.9c0.6,0.6,1,1.5,1,2.6v3.8c0,1.1-0.3,2-1,2.6c-0.7,0.6-1.6,0.9-2.7,0.9s-2-0.3-2.7-0.9
				c-0.7-0.6-1-1.5-1-2.6V63.3c0-0.1,0-0.2,0.1-0.3C124.1,62.9,124.2,62.9,124.3,62.9z M127.8,68.9c-1.2,0-2.2,0.4-2.9,1.3v5
				c0,0.8,0.2,1.5,0.7,1.9c0.5,0.4,1.2,0.7,1.9,0.7s1.4-0.2,1.9-0.6s0.8-1.1,0.8-1.9v-3.7c0-0.8-0.2-1.5-0.7-1.9
				C129.2,69.1,128.5,68.9,127.8,68.9z"/>
			<path id="letter_x5F_r" fill="#86CD4D" d="M138,67.8c0.3,0,0.4,0.1,0.4,0.4v0.1c0,0.1,0,0.2-0.1,0.3c-0.1,0.1-0.2,0.1-0.3,0.1
				c-0.8,0-1.5,0.2-2,0.6c-0.5,0.4-0.7,1.1-0.7,1.9v6.9c0,0.1,0,0.2-0.1,0.3c-0.1,0.1-0.2,0.1-0.3,0.1h-0.1c-0.1,0-0.2,0-0.3-0.1
				s-0.1-0.2-0.1-0.3v-6.8c0-1.2,0.3-2.1,1-2.7C135.9,68.1,136.8,67.8,138,67.8z"/>
			<path id="letter_x5F_a" fill="#86CD4D" d="M141.7,68.7c0.7-0.6,1.6-0.9,2.7-0.9c1.1,0,2,0.3,2.7,0.9c0.7,0.6,1,1.5,1,2.6v4.8
				c0,0.6,0,1,0.1,1.2c0.1,0.2,0.3,0.3,0.5,0.4l0.2,0.1c0.2,0,0.3,0.1,0.3,0.3v0.2c0,0.2-0.1,0.4-0.4,0.4c-0.7,0-1.2-0.2-1.4-0.6
				c-0.3-0.4-0.4-1.1-0.4-1.9v-4.7c0-0.8-0.3-1.5-0.7-1.9c-0.5-0.4-1.2-0.7-1.9-0.7c-0.8,0-1.4,0.2-1.9,0.7
				c-0.5,0.4-0.8,1.1-0.8,1.9V75c0,0.8,0.2,1.5,0.6,1.9c0.4,0.4,1,0.6,1.8,0.6s1.5-0.3,2-1c0.1-0.1,0.2-0.2,0.4-0.2
				c0.2,0,0.3,0.1,0.4,0.3c0,0.2,0,0.3-0.1,0.5c-0.6,0.9-1.5,1.4-2.7,1.4c-1.2,0-2-0.3-2.6-0.9c-0.6-0.6-0.9-1.5-0.9-2.6v-3.7
				C140.7,70.2,141,69.4,141.7,68.7z"/>
		</g>
	</g>
</g>
</svg>
